<svg xmlns="http://www.w3.org/2000/svg" viewBox="0 0 480 300" width="480" height="300" role="img">
<title>Ilustración del proceso — EntenderTuNomina</title>

  <rect x="0" y="0" width="480" height="300" rx="10" fill="#FBFAF6"/>
  <rect x="0.5" y="0.5" width="479" height="299" rx="9.5" fill="none" stroke="#D8DCE6" stroke-width="1"/>
  <rect x="0" y="0" width="480" height="34" rx="10" fill="#182B3A"/>
  <rect x="0" y="24" width="480" height="10" fill="#182B3A"/>
  <circle cx="18" cy="17" r="4" fill="#AE4A30"/>
  <circle cx="32" cy="17" r="4" fill="#C79A45"/>
  <circle cx="46" cy="17" r="4" fill="#2F5D50"/>
  <text x="240.0" y="21" text-anchor="middle" font-family="IBM Plex Mono, Menlo, Consolas, monospace" font-size="10" letter-spacing="1.5" fill="#F3F1E8">Datos identificativos</text>
  <rect x="362" y="270" width="102" height="20" rx="10" fill="#FBFAF6" stroke="#C79A45" stroke-width="1"/>
  <text x="413" y="284" text-anchor="middle" font-family="IBM Plex Mono, Menlo, Consolas, monospace" font-size="8" letter-spacing=".5" fill="#20463B" font-weight="600">ENTENDERTUNOMINA.COM</text>

  <rect x="26" y="55" width="428" height="120" rx="6" fill="#FFFFFF" stroke="#D8DCE6" stroke-width="1"/>
  <circle cx="76" cy="110" r="26" fill="#DFDCCF"/>
  <circle cx="76" cy="101" r="10" fill="#3E5164"/>
  <path d="M56 128 a20 16 0 0 1 40 0" fill="#3E5164"/>
  <rect x="120" y="80" width="130" height="9" rx="2" fill="#182B3A"/>
  <rect x="120" y="98" width="170" height="7" rx="2" fill="#3E5164"/>
  <rect x="120" y="112" width="150" height="7" rx="2" fill="#3E5164"/>
  <rect x="120" y="126" width="110" height="7" rx="2" fill="#3E5164"/>
  <circle cx="390" cy="150" r="20" fill="none" stroke="#C79A45" stroke-width="2.5"/>
  <path d="M381 150 l6 6 l12 -13" fill="none" stroke="#C79A45" stroke-width="2.5" stroke-linecap="round" stroke-linejoin="round"/>
  <text x="26" y="200" font-family="IBM Plex Sans, Arial, sans-serif" font-size="11" fill="#3E5164">Validación con la Dirección General de Policía</text>
  <text x="26" y="235" font-family="IBM Plex Mono, Menlo, Consolas, monospace" font-size="9" letter-spacing=".5" fill="#3E5164">ILUSTRACIÓN DEL PROCESO · NO ES UNA CAPTURA REAL</text>

</svg>